<?xml version="1.0" encoding="utf-8"?>
<!-- Generator: Adobe Illustrator 24.0.0, SVG Export Plug-In . SVG Version: 6.00 Build 0)  -->
<svg version="1.1" id="Layer_1" xmlns="http://www.w3.org/2000/svg" xmlns:xlink="http://www.w3.org/1999/xlink" x="0px" y="0px"
	 viewBox="0 0 481.4 112.7" style="enable-background:new 0 0 481.4 112.7;" xml:space="preserve">
<style type="text/css">
	.st0{fill:#FFFFFF;}
</style>
<g>
	<path class="st0" d="M10.5,42V8.4h23.4v3.9H14.7v11.8H33V28H14.7V42H10.5z"/>
	<path class="st0" d="M38.7,42V18.3h3.6l0.4,3.5c1.5-2.7,3.9-4,7.3-4c0.1,0,0.1,0,0.2,0c1.8,0,3.6,0.6,5.3,1.9L53.7,23
		c-1.2-0.9-2.6-1.3-4.1-1.3c-2,0-3.6,0.7-4.9,2s-2,3-2,5.1V42H38.7z"/>
	<path class="st0" d="M56.9,30c0-3.6,1.2-6.5,3.5-8.8s5.2-3.5,8.8-3.5c1.8,0,3.5,0.3,5,0.8c1.5,0.6,2.8,1.4,3.9,2.5
		c1.1,1.1,1.9,2.5,2.4,4.3c0.4,1.2,0.5,2.6,0.5,4.1c0,0.6,0,1.3-0.1,2H60.8c0.2,2.3,1.1,4.1,2.7,5.5c1.6,1.4,3.6,2,5.9,2
		c1.4,0,2.8-0.3,4.3-0.8c1.4-0.5,2.5-1.2,3.2-2.2l2.7,2.4h0c-1.2,1.4-2.7,2.4-4.5,3.1c-1.8,0.7-3.7,1.1-5.7,1.1
		c-3.7,0-6.7-1.1-9-3.4S56.9,33.9,56.9,30z M60.8,28.2h16.4c-0.1-2.2-0.8-4-2.2-5.2c-1.4-1.2-3.3-1.8-5.7-1.8c-2.2,0-4,0.6-5.6,1.8
		C62.2,24.2,61.2,26,60.8,28.2z"/>
	<path class="st0" d="M85,30.1c0-2.6,0.6-4.8,1.7-6.7s2.6-3.3,4.4-4.2s3.9-1.4,6.1-1.4c1.9,0,3.7,0.4,5.2,1.2s2.7,2,3.6,3.6l0-4.3
		h3.8V42H106l-0.1-4.2c-0.9,1.5-2.1,2.7-3.8,3.5s-3.3,1.2-5,1.2c-2.3,0-4.3-0.5-6.2-1.5s-3.3-2.4-4.4-4.3S85,32.7,85,30.1z
		 M88.8,30.3c0,2.6,0.8,4.7,2.5,6.3S95,39,97.4,39c1.6,0,3-0.3,4.2-1s2.2-1.5,2.8-2.5c0.6-1,1.1-2.1,1.4-3.4
		c0.2-0.6,0.2-1.2,0.2-1.9s-0.1-1.2-0.2-1.9c-0.3-1.2-0.8-2.4-1.4-3.4s-1.6-1.9-2.8-2.5s-2.7-0.9-4.2-0.9c-2.4,0-4.5,0.8-6.1,2.4
		S88.8,27.6,88.8,30.3z"/>
	<path class="st0" d="M117.1,42V8.4h3.8v19.9l9.8-10h4.9v0.3l-10.9,10.9l12.2,12.3V42h-4.7L121,30.8V42H117.1z"/>
	<path class="st0" d="M140.3,11c0-0.8,0.3-1.4,0.8-1.9s1.1-0.7,1.8-0.7c0.7,0,1.3,0.2,1.8,0.7s0.8,1.1,0.8,1.9s-0.3,1.4-0.8,1.9
		s-1.1,0.6-1.8,0.6c-0.7,0-1.3-0.2-1.8-0.7S140.3,11.9,140.3,11z M140.9,42V18.3h3.9V42H140.9z"/>
	<path class="st0" d="M150.1,38.2l2.3-2.6c1,1.2,2.2,2.1,3.7,2.6s3.1,0.8,4.7,0.8c0.7,0,1.4-0.1,2.1-0.2s1.3-0.3,1.9-0.6
		s1.1-0.6,1.5-1.1c0.4-0.5,0.6-1.1,0.6-1.8c0-1.2-0.6-2.1-1.7-2.6c-1.1-0.6-2.7-1-4.7-1.2c-1-0.2-1.9-0.3-2.7-0.5
		c-0.8-0.1-1.7-0.4-2.5-0.7s-1.6-0.7-2.2-1.2s-1.1-1.1-1.4-1.8s-0.6-1.6-0.6-2.6c0-1.2,0.3-2.3,0.8-3.2s1.3-1.7,2.2-2.2
		s2-0.9,3.1-1.2s2.3-0.4,3.5-0.4c3.6,0,6.6,1.1,9,3.2l-2.3,2.6c-1-0.9-2-1.5-3-1.8s-2.3-0.5-3.6-0.5c-1.7,0-3.2,0.3-4.3,0.9
		s-1.7,1.5-1.7,2.6c0,0.5,0.1,0.9,0.4,1.3s0.5,0.7,0.9,0.9c0.4,0.2,0.8,0.4,1.4,0.6c0.6,0.2,1.1,0.3,1.6,0.4
		c0.5,0.1,1.1,0.2,1.8,0.3c0.6,0.1,1.1,0.2,1.5,0.2c0.4,0.1,0.9,0.1,1.5,0.2s1.1,0.2,1.5,0.3c0.4,0.1,0.9,0.3,1.4,0.5
		c0.5,0.2,1,0.4,1.3,0.7c0.4,0.2,0.7,0.5,1.1,0.9c0.4,0.4,0.7,0.7,0.9,1.2c0.2,0.4,0.4,0.9,0.5,1.4c0.1,0.5,0.2,1,0.2,1.6
		c0,0.1,0,0.1,0,0.2c0,1.5-0.5,2.9-1.4,4s-2.1,1.9-3.5,2.4s-3.1,0.8-4.9,0.8C155.9,42.6,152.4,41.1,150.1,38.2z"/>
	<path class="st0" d="M176.5,42V8.4h3.8v0v13.8c2-2.9,4.6-4.4,7.8-4.5c3.2,0,5.7,1,7.3,2.9s2.4,4.6,2.4,8.1V42h-3.9V28.8
		c0-2.3-0.5-4.1-1.6-5.4s-2.7-1.9-4.8-1.9c-2.1,0-3.9,0.8-5.2,2.3s-1.9,3.4-1.9,5.6V42H176.5z"/>
	<path class="st0" d="M205.2,42V8.4h3.8V42H205.2z"/>
	<path class="st0" d="M214.4,18.3h4.5l4.7,12.3l2.6,6.8l2.5-6.8l5.2-12.4h4.3l-14.9,34.9H219l5-11.6L214.4,18.3z"/>
	<path class="st0" d="M241.8,30.1v-3.8h17.2v3.8H241.8z"/>
	<path class="st0" d="M263.2,22v-3.4h4.6v-1.9c0-2.7,0.7-4.8,2.1-6.3s3.4-2.3,5.8-2.3c2,0,3.8,0.6,5.4,1.7l-1.6,2.9
		c-1.4-0.8-2.6-1.2-3.7-1.2c-2.8,0-4.1,1.7-4.1,5.2v1.9h7.5V22h-7.5v20h-4l0,0V22H263.2z"/>
	<path class="st0" d="M281.5,30.1c0-2.6,0.6-4.8,1.7-6.7s2.6-3.3,4.4-4.2s3.9-1.4,6.1-1.4c1.9,0,3.7,0.4,5.2,1.2s2.7,2,3.6,3.6
		l0-4.3h3.8V42h-3.8l-0.1-4.2c-0.9,1.5-2.1,2.7-3.8,3.5s-3.3,1.2-5,1.2c-2.3,0-4.3-0.5-6.2-1.5s-3.3-2.4-4.4-4.3
		S281.5,32.7,281.5,30.1z M285.3,30.3c0,2.6,0.8,4.7,2.5,6.3s3.7,2.4,6.1,2.4c1.6,0,3-0.3,4.2-1s2.2-1.5,2.8-2.5
		c0.6-1,1.1-2.1,1.4-3.4c0.2-0.6,0.2-1.2,0.2-1.9s-0.1-1.2-0.2-1.9c-0.3-1.2-0.8-2.4-1.4-3.4s-1.6-1.9-2.8-2.5s-2.7-0.9-4.2-0.9
		c-2.4,0-4.5,0.8-6.1,2.4S285.3,27.6,285.3,30.3z"/>
	<path class="st0" d="M311.6,38.2l2.3-2.6c1,1.2,2.2,2.1,3.7,2.6s3.1,0.8,4.7,0.8c0.7,0,1.4-0.1,2.1-0.2s1.3-0.3,1.9-0.6
		s1.1-0.6,1.5-1.1c0.4-0.5,0.6-1.1,0.6-1.8c0-1.2-0.6-2.1-1.7-2.6c-1.1-0.6-2.7-1-4.7-1.2c-1-0.2-1.9-0.3-2.7-0.5
		c-0.8-0.1-1.7-0.4-2.5-0.7s-1.6-0.7-2.2-1.2s-1.1-1.1-1.4-1.8s-0.6-1.6-0.6-2.6c0-1.2,0.3-2.3,0.8-3.2s1.3-1.7,2.2-2.2
		s2-0.9,3.1-1.2s2.3-0.4,3.5-0.4c3.6,0,6.6,1.1,9,3.2l-2.3,2.6c-1-0.9-2-1.5-3-1.8s-2.3-0.5-3.6-0.5c-1.7,0-3.2,0.3-4.3,0.9
		s-1.7,1.5-1.7,2.6c0,0.5,0.1,0.9,0.4,1.3s0.5,0.7,0.9,0.9c0.4,0.2,0.8,0.4,1.4,0.6c0.6,0.2,1.1,0.3,1.6,0.4
		c0.5,0.1,1.1,0.2,1.8,0.3c0.6,0.1,1.1,0.2,1.5,0.2c0.4,0.1,0.9,0.1,1.5,0.2s1.1,0.2,1.5,0.3c0.4,0.1,0.9,0.3,1.4,0.5
		c0.5,0.2,1,0.4,1.3,0.7c0.4,0.2,0.7,0.5,1.1,0.9c0.4,0.4,0.7,0.7,0.9,1.2c0.2,0.4,0.4,0.9,0.5,1.4c0.1,0.5,0.2,1,0.2,1.6
		c0,0.1,0,0.1,0,0.2c0,1.5-0.5,2.9-1.4,4s-2.1,1.9-3.5,2.4s-3.1,0.8-4.9,0.8C317.4,42.6,313.8,41.1,311.6,38.2z"/>
	<path class="st0" d="M335.5,21.6v-3.4h4.7v-6.4l4-0.4v6.8h7.3v3.4h-7.4v13c0,1.5,0.3,2.6,0.8,3.4s1.5,1.2,2.9,1.2
		c0.9,0,2-0.3,3.3-0.9l1.1,3.2c-1.6,0.7-3.1,1.1-4.6,1.2c-0.1,0-0.2,0-0.3,0c-2.3,0-4.1-0.7-5.3-2c-1.2-1.4-1.9-3.4-1.9-6.1V21.6
		H335.5z"/>
	<path class="st0" d="M368.3,11c0-0.8,0.3-1.4,0.8-1.9s1.1-0.7,1.8-0.7c0.7,0,1.3,0.2,1.8,0.7s0.8,1.1,0.8,1.9s-0.3,1.4-0.8,1.9
		s-1.1,0.6-1.8,0.6c-0.7,0-1.3-0.2-1.8-0.7S368.3,11.9,368.3,11z M368.9,42V18.3h3.9V42H368.9z"/>
	<path class="st0" d="M378.1,38.2l2.3-2.6c1,1.2,2.2,2.1,3.7,2.6s3.1,0.8,4.7,0.8c0.7,0,1.4-0.1,2.1-0.2s1.3-0.3,1.9-0.6
		s1.1-0.6,1.5-1.1c0.4-0.5,0.6-1.1,0.6-1.8c0-1.2-0.6-2.1-1.7-2.6c-1.1-0.6-2.7-1-4.7-1.2c-1-0.2-1.9-0.3-2.7-0.5
		c-0.8-0.1-1.7-0.4-2.5-0.7s-1.6-0.7-2.2-1.2s-1.1-1.1-1.4-1.8s-0.6-1.6-0.6-2.6c0-1.2,0.3-2.3,0.8-3.2s1.3-1.7,2.2-2.2
		s2-0.9,3.1-1.2s2.3-0.4,3.5-0.4c3.6,0,6.6,1.1,9,3.2l-2.3,2.6c-1-0.9-2-1.5-3-1.8s-2.3-0.5-3.6-0.5c-1.7,0-3.2,0.3-4.3,0.9
		s-1.7,1.5-1.7,2.6c0,0.5,0.1,0.9,0.4,1.3s0.5,0.7,0.9,0.9c0.4,0.2,0.8,0.4,1.4,0.6c0.6,0.2,1.1,0.3,1.6,0.4
		c0.5,0.1,1.1,0.2,1.8,0.3c0.6,0.1,1.1,0.2,1.5,0.2c0.4,0.1,0.9,0.1,1.5,0.2s1.1,0.2,1.5,0.3c0.4,0.1,0.9,0.3,1.4,0.5
		c0.5,0.2,1,0.4,1.3,0.7c0.4,0.2,0.7,0.5,1.1,0.9c0.4,0.4,0.7,0.7,0.9,1.2c0.2,0.4,0.4,0.9,0.5,1.4c0.1,0.5,0.2,1,0.2,1.6
		c0,0.1,0,0.1,0,0.2c0,1.5-0.5,2.9-1.4,4s-2.1,1.9-3.5,2.4s-3.1,0.8-4.9,0.8C383.9,42.6,380.3,41.1,378.1,38.2z"/>
	<path class="st0" d="M7.6,77.6v-3.4h4.7v-6.4l4-0.4v6.8h7.3v3.4h-7.4v13c0,1.5,0.3,2.6,0.8,3.4s1.5,1.2,2.9,1.2
		c0.9,0,2-0.3,3.3-0.9l1.1,3.2c-1.6,0.7-3.1,1.1-4.6,1.2c-0.1,0-0.2,0-0.3,0c-2.3,0-4.1-0.7-5.3-2c-1.2-1.4-1.9-3.4-1.9-6.1V77.6
		H7.6z"/>
	<path class="st0" d="M29.1,98V64.4H33v0v13.8c2-2.9,4.6-4.4,7.8-4.5c3.2,0,5.7,1,7.3,2.9s2.4,4.6,2.4,8.1V98h-3.9V84.8
		c0-2.3-0.5-4.1-1.6-5.4s-2.7-1.9-4.8-1.9c-2.1,0-3.9,0.8-5.2,2.3s-1.9,3.4-1.9,5.6V98H29.1z"/>
	<path class="st0" d="M56.1,86c0-3.6,1.2-6.5,3.5-8.8s5.2-3.5,8.8-3.5c1.8,0,3.5,0.3,5,0.8c1.5,0.6,2.8,1.4,3.9,2.5
		c1.1,1.1,1.9,2.5,2.4,4.3c0.4,1.2,0.5,2.6,0.5,4.1c0,0.6,0,1.3-0.1,2H60c0.2,2.3,1.1,4.1,2.7,5.5s3.6,2,5.9,2
		c1.4,0,2.8-0.3,4.3-0.8s2.5-1.2,3.2-2.2l2.7,2.4h0c-1.2,1.4-2.7,2.4-4.5,3.1c-1.8,0.7-3.7,1.1-5.7,1.1c-3.7,0-6.7-1.1-9-3.4
		S56.1,89.9,56.1,86z M60,84.2h16.4c-0.1-2.2-0.8-4-2.2-5.2c-1.4-1.2-3.3-1.8-5.7-1.8c-2.2,0-4,0.6-5.6,1.8
		C61.4,80.2,60.4,82,60,84.2z"/>
	<path class="st0" d="M96.5,86.2c0-3.6,1.2-6.6,3.5-8.9c2.3-2.3,5.2-3.5,8.8-3.5c3.6,0,6.6,1.2,8.9,3.5s3.5,5.3,3.5,8.9
		c0,3.7-1.2,6.6-3.5,9c-2.3,2.3-5.3,3.5-8.9,3.5c-3.6,0-6.5-1.2-8.8-3.5C97.6,92.8,96.5,89.8,96.5,86.2z M100.3,86.2
		c0,2.5,0.8,4.6,2.4,6.2c1.6,1.6,3.6,2.4,6,2.4c2.5,0,4.5-0.8,6.1-2.4c1.6-1.6,2.4-3.7,2.4-6.3c0-2.6-0.8-4.7-2.4-6.3
		c-1.6-1.6-3.6-2.5-6-2.5c-2.4,0-4.4,0.8-6,2.4C101.1,81.5,100.3,83.6,100.3,86.2z"/>
	<path class="st0" d="M127.3,98V74.3h3.6L131,78c2-2.8,4.6-4.2,8-4.2c3,0,5.4,1,7.3,2.9s2.8,4.7,2.8,8.2V98h-3.9V84.9
		c0-2.4-0.6-4.3-1.7-5.5s-2.9-1.9-5.1-1.9c-2.1,0-3.8,0.8-5.2,2.3c-1.3,1.5-2,3.4-2,5.6V98H127.3z"/>
	<path class="st0" d="M156.3,98V64.4h3.8V98H156.3z"/>
	<path class="st0" d="M165.5,74.3h4.5l4.7,12.3l2.6,6.8l2.5-6.8l5.2-12.4h4.3l-14.9,34.9h-4.3l5-11.6L165.5,74.3z"/>
	<path class="st0" d="M201.9,74.3h4.4l6.4,19.6l6.3-19.6h3.2l6.3,19.6l6.4-19.6h4.4L231,98h-4.5l-3-9.1l-2.9-8.7l-2.9,8.7l-3,9.1
		h-4.2L201.9,74.3z"/>
	<path class="st0" d="M242,86.1c0-2.6,0.6-4.8,1.7-6.7s2.6-3.3,4.4-4.2s3.9-1.4,6.1-1.4c1.9,0,3.7,0.4,5.2,1.2s2.7,2,3.6,3.6l0-4.3
		h3.8V98H263l-0.1-4.2c-0.9,1.5-2.1,2.7-3.8,3.5s-3.3,1.2-5,1.2c-2.3,0-4.3-0.5-6.2-1.5s-3.3-2.4-4.4-4.3S242,88.7,242,86.1z
		 M245.8,86.3c0,2.6,0.8,4.7,2.5,6.3s3.7,2.4,6.1,2.4c1.6,0,3-0.3,4.2-1s2.2-1.5,2.8-2.5c0.6-1,1.1-2.1,1.4-3.4
		c0.2-0.6,0.2-1.2,0.2-1.9s-0.1-1.2-0.2-1.9c-0.3-1.2-0.8-2.4-1.4-3.4s-1.6-1.9-2.8-2.5s-2.7-0.9-4.2-0.9c-2.4,0-4.5,0.8-6.1,2.4
		S245.8,83.6,245.8,86.3z"/>
	<path class="st0" d="M271.9,74.3h4.5l4.7,12.3l2.6,6.8l2.5-6.8l5.2-12.4h4.3l-14.9,34.9h-4.3l5-11.6L271.9,74.3z"/>
	<path class="st0" d="M308.7,77.6v-3.4h4.7v-6.4l4-0.4v6.8h7.3v3.4h-7.4v13c0,1.5,0.3,2.6,0.8,3.4s1.5,1.2,2.9,1.2
		c0.9,0,2-0.3,3.3-0.9l1.1,3.2c-1.6,0.7-3.1,1.1-4.6,1.2c-0.1,0-0.2,0-0.3,0c-2.3,0-4.1-0.7-5.3-2c-1.2-1.4-1.9-3.4-1.9-6.1V77.6
		H308.7z"/>
	<path class="st0" d="M328.2,86.2c0-3.6,1.2-6.6,3.5-8.9c2.3-2.3,5.2-3.5,8.8-3.5c3.6,0,6.6,1.2,8.9,3.5c2.3,2.3,3.5,5.3,3.5,8.9
		c0,3.7-1.2,6.6-3.5,9c-2.3,2.3-5.3,3.5-8.9,3.5c-3.6,0-6.5-1.2-8.8-3.5C329.4,92.8,328.2,89.8,328.2,86.2z M332,86.2
		c0,2.5,0.8,4.6,2.4,6.2s3.6,2.4,6,2.4c2.5,0,4.5-0.8,6.1-2.4c1.6-1.6,2.4-3.7,2.4-6.3c0-2.6-0.8-4.7-2.4-6.3
		c-1.6-1.6-3.6-2.5-6-2.5c-2.4,0-4.4,0.8-6,2.4C332.8,81.5,332,83.6,332,86.2z"/>
	<path class="st0" d="M369.4,85.5c0-1.5,0.2-2.9,0.7-4.2s1.1-2.4,1.9-3.3s1.8-1.7,2.8-2.3s2.2-1.1,3.4-1.4s2.4-0.5,3.6-0.5
		c1.2,0,2.4,0.2,3.6,0.5c1.2,0.3,2.3,0.8,3.1,1.4l2.5-3.2l2.8,2.3l-2.7,3.1c1,1.1,1.8,2.3,2.3,3.4c0.5,1.2,0.7,2.5,0.7,4.2
		c0,2.1-0.6,4.1-1.7,5.9s-2.8,3-5,3.8c4.3,1.2,6.5,3.7,6.5,7.3c0,1.2-0.2,2.4-0.7,3.4c-0.5,1-1.1,1.9-1.9,2.6s-1.7,1.3-2.7,1.8
		c-1.1,0.5-2.2,0.9-3.4,1.1c-1.2,0.2-2.4,0.3-3.7,0.3c-2.4,0-4.5-0.4-6.4-1.2s-3.3-2-4.3-3.5c-1-1.5-1.5-3.1-1.5-5.1
		c0-0.1,0-0.2,0-0.4h3.8c0,0.9,0.2,1.7,0.5,2.4s0.7,1.4,1.3,1.9s1.2,0.9,1.9,1.3s1.5,0.6,2.3,0.8s1.7,0.2,2.5,0.2
		c1.1,0,2.1-0.1,3-0.3s1.8-0.5,2.6-0.9s1.5-1,1.9-1.8s0.7-1.6,0.7-2.6c0-1.2-0.4-2.2-1.2-3.1s-1.8-1.4-3-1.7s-2.6-0.5-4.1-0.5
		c-3.8,0-6.8-1-9.1-3.1S369.4,89.1,369.4,85.5z M373.2,85.5c0,1.8,0.5,3.3,1.3,4.6s1.8,2.2,3.1,2.8c1.3,0.6,2.7,0.9,4.3,0.9
		c2.5,0,4.5-0.8,6.1-2.4s2.4-3.5,2.4-5.9c0-1.7-0.4-3.2-1.2-4.5c-0.8-1.3-1.9-2.2-3.1-2.8s-2.7-0.9-4.2-0.9c-1.1,0-2.1,0.2-3.1,0.5
		c-1,0.3-1.9,0.8-2.8,1.5c-0.8,0.6-1.5,1.5-2,2.6C373.5,83,373.2,84.1,373.2,85.5z"/>
	<path class="st0" d="M398.7,86.2c0-3.6,1.2-6.6,3.5-8.9c2.3-2.3,5.2-3.5,8.8-3.5c3.6,0,6.6,1.2,8.9,3.5c2.3,2.3,3.5,5.3,3.5,8.9
		c0,3.7-1.2,6.6-3.5,9c-2.3,2.3-5.3,3.5-8.9,3.5c-3.6,0-6.5-1.2-8.8-3.5C399.8,92.8,398.7,89.8,398.7,86.2z M402.5,86.2
		c0,2.5,0.8,4.6,2.4,6.2s3.6,2.4,6,2.4c2.5,0,4.5-0.8,6.1-2.4c1.6-1.6,2.4-3.7,2.4-6.3c0-2.6-0.8-4.7-2.4-6.3
		c-1.6-1.6-3.6-2.5-6-2.5c-2.4,0-4.4,0.8-6,2.4C403.3,81.5,402.5,83.6,402.5,86.2z"/>
</g>
</svg>
