<?xml version="1.0" encoding="utf-8"?>
<!-- Generator: Adobe Illustrator 24.0.0, SVG Export Plug-In . SVG Version: 6.00 Build 0)  -->
<svg version="1.1" id="Layer_1" xmlns="http://www.w3.org/2000/svg" xmlns:xlink="http://www.w3.org/1999/xlink" x="0px" y="0px"
	 viewBox="0 0 190 43.5" style="enable-background:new 0 0 190 43.5;" xml:space="preserve">
<style type="text/css">
	.st0{enable-background:new    ;}
	.st1{fill:#FFFFFF;}
</style>
<g class="st0">
	<path class="st1" d="M32.8,16.2h2c2.2,0,4.6-0.5,4.6-3.2c0-1.7-1.6-3-3.5-3s-3.2,1.2-3.5,2.7l-6.6-1.4c1.2-5,5.3-6.9,10.2-6.9
		c5.1,0,9.6,2.5,9.6,7.9c0,3.1-1.7,5.6-4.9,6.2v0.1c3.4,0.4,5.4,3.3,5.4,6.6c0,5.7-4.7,8.5-10.3,8.5c-5.1,0-9.1-2.3-10.2-7.4
		l6.4-1.5c0.4,2,1.7,3.3,4.2,3.3c2.6,0,3.9-1.5,3.9-3.7c0-3.2-2.9-3.3-5.6-3.3h-1.7V16.2z"/>
</g>
<g class="st0">
	<path class="st1" d="M59.2,23.2c-0.6,0.2-1.3,0.3-2,0.3c-5.4,0-8.9-4.1-8.9-9.3c0-5.9,4.7-9.8,10.6-9.8c6,0,10.6,3.9,10.6,9.8
		c0,4.1-1.6,6.6-3.4,9.5l-6.2,9.8h-7.4L59.2,23.2z M59,18.9c2.7,0,4.6-1.9,4.6-4.5S61.7,10,59,10s-4.6,1.9-4.6,4.5
		S56.3,18.9,59,18.9z"/>
</g>
<g class="st0">
	<path class="st1" d="M73.7,26.3c2.1,0,3.7,1.7,3.7,3.7s-1.7,3.7-3.7,3.7S70,32,70,30S71.7,26.3,73.7,26.3z"/>
</g>
<g class="st0">
	<path class="st1" d="M86.4,23.2c-0.6,0.2-1.3,0.3-2,0.3c-5.4,0-8.9-4.1-8.9-9.3c0-5.9,4.7-9.8,10.6-9.8c6,0,10.6,3.9,10.6,9.8
		c0,4.1-1.6,6.6-3.4,9.5l-6.2,9.8h-7.4L86.4,23.2z M86.1,18.9c2.7,0,4.6-1.9,4.6-4.5S88.8,10,86.1,10c-2.7,0-4.6,1.9-4.6,4.5
		S83.4,18.9,86.1,18.9z"/>
	<path class="st1" d="M110.2,23.2c-0.6,0.2-1.3,0.3-2,0.3c-5.4,0-8.9-4.1-8.9-9.3c0-5.9,4.7-9.8,10.6-9.8c6,0,10.6,3.9,10.6,9.8
		c0,4.1-1.6,6.6-3.4,9.5l-6.2,9.8h-7.4L110.2,23.2z M109.9,18.9c2.7,0,4.6-1.9,4.6-4.5s-1.9-4.4-4.6-4.4s-4.6,1.9-4.6,4.5
		S107.2,18.9,109.9,18.9z"/>
</g>
<g class="st0">
	<path class="st1" d="M132.1,2.8l4.6,1.4l-12.1,31.4l-4.6-1.4L132.1,2.8z"/>
</g>
<g class="st0">
	<path class="st1" d="M135.8,17.8h4.6v2.1h0.1c0.6-1.2,2.2-2.5,4.6-2.5c2.2,0,4,0.9,4.8,2.8c1.1-2,2.6-2.8,5-2.8
		c4.3,0,5.6,3,5.6,6.8v9.3h-4.8v-9.1c0-1.5-0.5-2.7-2.1-2.7c-2.2,0-2.9,1.6-2.9,3.5v8.3h-4.8v-8.3c0-1.2,0.1-3.5-2.2-3.5
		c-2.5,0-2.9,2-2.9,4v7.8H136C135.8,33.4,135.8,17.8,135.8,17.8z"/>
	<path class="st1" d="M172.1,17.4c4.8,0,8.7,3.2,8.7,8.2s-3.9,8.2-8.7,8.2s-8.7-3.2-8.7-8.2S167.2,17.4,172.1,17.4z M172.1,29.6
		c2.4,0,3.9-1.6,3.9-4s-1.5-4-3.9-4s-3.9,1.6-3.9,4S169.7,29.6,172.1,29.6z"/>
</g>
<g class="st0">
	<path class="st1" d="M12.6,4.3c2.9,0,6.2,0.7,8.6,2.5l-3.8,4.7c-1.3-1.1-3-1.6-4.7-1.7v6.4l3.8,1.1c3.5,1,5.8,3.5,5.8,7.2
		c0,5.6-4.4,8.5-9.6,9v2.8h-2.6v-2.8c-3.5,0-7.2-0.8-9.9-3.2l4.2-4.8c1.4,1.7,3.5,2.3,5.6,2.5v-6.8l-3-0.8c-4-1.3-6.2-3.4-6.2-7.5
		c0-5,4.4-8.1,9.1-8.6V1.5h2.6L12.6,4.3L12.6,4.3z M9.9,9.9c-1.5,0.3-2.9,1-2.9,2.7c0,2.4,2.2,2.6,2.9,2.9V9.9z M12.6,28
		c1.6-0.3,3.4-1.1,3.4-3c0-1.7-1.2-2.2-2.6-2.8L12.6,22V28z"/>
</g>
</svg>
