<?xml version="1.0" encoding="utf-8"?>
<!-- Generator: Adobe Illustrator 24.0.0, SVG Export Plug-In . SVG Version: 6.00 Build 0)  -->
<svg version="1.1" id="Layer_1" xmlns="http://www.w3.org/2000/svg" xmlns:xlink="http://www.w3.org/1999/xlink" x="0px" y="0px"
	 viewBox="0 0 357.6 41" style="enable-background:new 0 0 357.6 41;" xml:space="preserve">
<style type="text/css">
	.st0{fill:#FFFFFF;}
</style>
<g id="Layer_2_1_">
</g>
<g>
	<path class="st0" d="M0.6,30.6L12,5.4h3.5l11.3,25.2h-3.4l-2.4-5.5H6.5L4,30.6H0.6z M7.7,22.1h11.9l-6-13.6L7.7,22.1z"/>
	<path class="st0" d="M36.6,27.7l1.8-2c0.7,0.9,1.6,1.6,2.8,2s2.3,0.6,3.5,0.6c0.5,0,1.1,0,1.5-0.1s1-0.2,1.4-0.4
		c0.5-0.2,0.8-0.5,1.1-0.9c0.3-0.4,0.4-0.8,0.5-1.3c0-0.9-0.4-1.5-1.2-2s-2-0.7-3.5-0.9c-0.8-0.1-1.4-0.2-2.1-0.3
		c-0.6-0.1-1.3-0.3-1.9-0.5s-1.2-0.6-1.6-0.9s-0.8-0.8-1.1-1.4s-0.4-1.2-0.4-1.9c0-0.9,0.2-1.7,0.6-2.4s1-1.2,1.7-1.6
		s1.5-0.7,2.3-0.9s1.7-0.3,2.6-0.3c2.7,0,4.9,0.8,6.7,2.4l-1.7,2c-0.7-0.7-1.5-1.1-2.3-1.4S45.5,15,44.5,15c-1.3,0-2.4,0.2-3.2,0.7
		c-0.8,0.4-1.2,1.1-1.2,1.9c0,0.4,0.1,0.7,0.3,1c0.2,0.3,0.4,0.5,0.7,0.7c0.3,0.2,0.6,0.3,1,0.5c0.4,0.1,0.8,0.2,1.2,0.3
		c0.4,0.1,0.8,0.1,1.3,0.2c0.4,0.1,0.8,0.1,1.1,0.2s0.7,0.1,1.1,0.2c0.5,0.1,0.8,0.2,1.1,0.2s0.7,0.2,1.1,0.4c0.4,0.2,0.7,0.3,1,0.5
		c0.3,0.2,0.5,0.4,0.8,0.7c0.3,0.3,0.5,0.6,0.7,0.9c0.2,0.3,0.3,0.7,0.4,1.1c0.1,0.4,0.1,0.8,0.1,1.2c0,0,0,0.1,0,0.2
		c0,1.2-0.4,2.2-1.1,3s-1.6,1.4-2.7,1.8S46,31,44.6,31C41,31,38.3,29.9,36.6,27.7z"/>
	<path class="st0" d="M56.4,39V12.8h2.8l0.2,3.5c0.7-1.2,1.7-2.2,2.9-2.8s2.5-1,3.9-1c2.6,0.1,4.7,0.9,6.2,2.6s2.4,3.9,2.4,6.7
		c0,2.8-0.8,5.1-2.4,6.8C70.8,30.2,68.7,31,66,31c-1.3,0-2.6-0.3-3.8-0.9c-1.2-0.6-2.2-1.5-2.9-2.7V39H56.4z M59.6,21.8
		c0,1.8,0.6,3.4,1.8,4.6c1.2,1.2,2.7,1.8,4.5,1.8c1.8,0,3.3-0.6,4.4-1.7s1.6-2.7,1.6-4.7c0-2.1-0.5-3.6-1.6-4.8
		c-1.1-1.1-2.5-1.7-4.4-1.7c-1.8,0-3.3,0.6-4.5,1.8C60.2,18.4,59.6,20,59.6,21.8z"/>
	<path class="st0" d="M77.9,21.6c0-2.7,0.9-4.9,2.6-6.6s3.9-2.6,6.6-2.6c1.4,0,2.6,0.2,3.8,0.6c1.1,0.4,2.1,1,2.9,1.9
		c0.8,0.8,1.4,1.9,1.8,3.2c0.3,0.9,0.4,2,0.4,3.1c0,0.5,0,1-0.1,1.5H80.8c0.2,1.7,0.8,3.1,2.1,4.1c1.2,1,2.7,1.5,4.4,1.5
		c1.1,0,2.1-0.2,3.2-0.6c1.1-0.4,1.9-0.9,2.4-1.6l2,1.8h0c-0.9,1-2,1.8-3.4,2.3S88.7,31,87.3,31c-2.8,0-5-0.8-6.8-2.5
		S77.9,24.5,77.9,21.6z M80.8,20.3h12.3c0-1.7-0.6-3-1.7-3.9S89,15,87.2,15c-1.6,0-3,0.4-4.2,1.3S81.1,18.6,80.8,20.3z"/>
	<path class="st0" d="M99,21.6c0-2.7,0.9-4.9,2.6-6.6s3.9-2.6,6.6-2.6c1.4,0,2.6,0.2,3.8,0.6c1.1,0.4,2.1,1,2.9,1.9
		c0.8,0.8,1.4,1.9,1.8,3.2c0.3,0.9,0.4,2,0.4,3.1c0,0.5,0,1-0.1,1.5h-15.1c0.2,1.7,0.8,3.1,2.1,4.1c1.2,1,2.7,1.5,4.4,1.5
		c1.1,0,2.1-0.2,3.2-0.6c1.1-0.4,1.9-0.9,2.4-1.6l2,1.8h0c-0.9,1-2,1.8-3.4,2.3s-2.8,0.8-4.3,0.8c-2.8,0-5-0.8-6.8-2.5
		S99,24.5,99,21.6z M101.9,20.3h12.3c0-1.7-0.6-3-1.7-3.9s-2.5-1.3-4.3-1.3c-1.6,0-3,0.4-4.2,1.3S102.2,18.6,101.9,20.3z"/>
	<path class="st0" d="M120.1,21.7c0-1.5,0.2-2.8,0.7-4c0.5-1.2,1.1-2.1,1.9-2.9c0.8-0.8,1.8-1.4,2.8-1.8c1.1-0.4,2.3-0.6,3.6-0.6
		c1.3,0,2.6,0.3,3.9,0.9c1.2,0.6,2.2,1.5,2.8,2.6V5.4h3l0,0v25.2h-2.8l-0.1-3.3c-0.7,1.2-1.6,2.1-2.8,2.8c-1.2,0.6-2.5,1-3.8,1
		c-2.6,0-4.8-0.8-6.5-2.5C121,26.9,120.1,24.6,120.1,21.7z M123,21.6c0,2.1,0.6,3.7,1.8,4.9s2.7,1.7,4.5,1.7c1.8,0,3.3-0.6,4.5-1.9
		s1.8-2.8,1.8-4.8c0-1.9-0.6-3.4-1.8-4.7s-2.7-1.8-4.5-1.8c-1.8,0-3.3,0.6-4.5,1.7C123.6,18,123,19.6,123,21.6z"/>
	<path class="st0" d="M151.1,15.6v-2.5h3.5v-1.4c0-2,0.5-3.6,1.6-4.7s2.5-1.7,4.4-1.7c1.5,0,2.8,0.4,4,1.3l-1.2,2.2
		c-1-0.6-1.9-0.9-2.7-0.9c-2.1,0-3.1,1.3-3.1,3.9v1.4h5.6v2.5h-5.6v15h-3l0,0v-15H151.1z"/>
	<path class="st0" d="M166.4,30.6V12.8h2.7l0.3,2.6c1.1-2,3-3,5.5-3c0,0,0.1,0,0.1,0c1.3,0,2.7,0.5,4,1.4l-1.3,2.5
		c-0.9-0.7-2-1-3.1-1c-1.5,0-2.7,0.5-3.7,1.5s-1.5,2.3-1.5,3.9v9.9H166.4z"/>
	<path class="st0" d="M180.1,21.6c0-2.7,0.9-4.9,2.6-6.6s3.9-2.6,6.6-2.6c1.4,0,2.6,0.2,3.8,0.6c1.1,0.4,2.1,1,2.9,1.9
		c0.8,0.8,1.4,1.9,1.8,3.2c0.3,0.9,0.4,2,0.4,3.1c0,0.5,0,1-0.1,1.5H183c0.2,1.7,0.8,3.1,2.1,4.1c1.2,1,2.7,1.5,4.4,1.5
		c1.1,0,2.1-0.2,3.2-0.6c1.1-0.4,1.9-0.9,2.4-1.6l2,1.8h0c-0.9,1-2,1.8-3.4,2.3s-2.8,0.8-4.3,0.8c-2.8,0-5-0.8-6.8-2.5
		S180.1,24.5,180.1,21.6z M183,20.3h12.3c0-1.7-0.6-3-1.7-3.9s-2.5-1.3-4.3-1.3c-1.6,0-3,0.4-4.2,1.3S183.3,18.6,183,20.3z"/>
	<path class="st0" d="M201.2,21.7c0-1.9,0.4-3.6,1.2-5.1s1.9-2.5,3.3-3.2s2.9-1,4.6-1c1.5,0,2.7,0.3,3.9,0.9s2,1.5,2.7,2.7l0-3.3
		h2.8v17.8h-2.9l-0.1-3.1c-0.7,1.1-1.6,2-2.8,2.6s-2.5,0.9-3.7,0.9c-1.7,0-3.3-0.4-4.6-1.1s-2.5-1.8-3.3-3.3S201.2,23.6,201.2,21.7z
		 M204,21.8c0,1.9,0.6,3.5,1.8,4.7s2.7,1.8,4.6,1.8c1.2,0,2.2-0.2,3.2-0.7s1.6-1.1,2.1-1.9c0.5-0.8,0.8-1.6,1.1-2.5
		c0.1-0.5,0.2-0.9,0.2-1.4s-0.1-0.9-0.2-1.4c-0.2-0.9-0.6-1.8-1.1-2.6s-1.2-1.4-2.1-1.9s-2-0.7-3.2-0.7c-1.8,0-3.4,0.6-4.6,1.8
		S204,19.8,204,21.8z"/>
	<path class="st0" d="M225.3,30.6V5.4h2.9v14.9l7.3-7.5h3.7V13l-8.2,8.2l9.1,9.2v0.2h-3.6l-8.4-8.4v8.4H225.3z"/>
	<path class="st0" d="M251.9,30.6V5.4h2.9v14.9l7.3-7.5h3.7V13l-8.2,8.2l9.1,9.2v0.2h-3.6l-8.4-8.4v8.4H251.9z"/>
	<path class="st0" d="M270.1,30.6V12.8h2.7l0.1,2.7c1.5-2.1,3.5-3.1,6-3.1c2.3,0,4.1,0.7,5.5,2.2c1.4,1.5,2.1,3.5,2.1,6.1v9.9h-3
		v-9.9c0-1.8-0.4-3.2-1.3-4.2c-0.9-1-2.2-1.4-3.9-1.4c-1.6,0-2.9,0.6-3.9,1.7c-1,1.1-1.5,2.5-1.5,4.2v9.6H270.1z"/>
	<path class="st0" d="M290.5,21.7c0-2.7,0.9-5,2.6-6.7s3.9-2.6,6.6-2.6c2.7,0,4.9,0.9,6.7,2.6c1.7,1.7,2.6,4,2.6,6.7
		c0,2.7-0.9,5-2.6,6.7c-1.8,1.7-4,2.6-6.7,2.6c-2.7,0-4.9-0.9-6.6-2.6S290.5,24.5,290.5,21.7z M293.4,21.7c0,1.9,0.6,3.5,1.8,4.7
		c1.2,1.2,2.7,1.8,4.5,1.8c1.8,0,3.4-0.6,4.6-1.8c1.2-1.2,1.8-2.8,1.8-4.7c0-1.9-0.6-3.5-1.8-4.7c-1.2-1.2-2.7-1.8-4.5-1.8
		c-1.8,0-3.3,0.6-4.5,1.8C294,18.2,293.4,19.8,293.4,21.7z"/>
	<path class="st0" d="M311,12.8h3.3l4.8,14.7l4.7-14.7h2.4l4.7,14.7l4.8-14.7h3.3l-6.2,17.8h-3.4l-2.3-6.9l-2.2-6.5l-2.2,6.5
		l-2.3,6.8h-3.2L311,12.8z"/>
	<path class="st0" d="M340.9,27.7l1.8-2c0.7,0.9,1.6,1.6,2.8,2s2.3,0.6,3.5,0.6c0.5,0,1.1,0,1.5-0.1s1-0.2,1.4-0.4
		c0.5-0.2,0.8-0.5,1.1-0.9c0.3-0.4,0.4-0.8,0.5-1.3c0-0.9-0.4-1.5-1.2-2c-0.8-0.4-2-0.7-3.5-0.9c-0.8-0.1-1.4-0.2-2.1-0.3
		c-0.6-0.1-1.3-0.3-1.9-0.5s-1.2-0.6-1.6-0.9s-0.8-0.8-1.1-1.4s-0.4-1.2-0.4-1.9c0-0.9,0.2-1.7,0.6-2.4s1-1.2,1.7-1.6
		s1.5-0.7,2.3-0.9s1.7-0.3,2.6-0.3c2.7,0,4.9,0.8,6.7,2.4l-1.7,2c-0.7-0.7-1.5-1.1-2.3-1.4s-1.7-0.4-2.7-0.4c-1.3,0-2.4,0.2-3.2,0.7
		c-0.8,0.4-1.2,1.1-1.2,1.9c0,0.4,0.1,0.7,0.3,1c0.2,0.3,0.4,0.5,0.7,0.7c0.3,0.2,0.6,0.3,1,0.5s0.8,0.2,1.2,0.3
		c0.4,0.1,0.8,0.1,1.3,0.2c0.4,0.1,0.8,0.1,1.1,0.2c0.3,0,0.7,0.1,1.1,0.2c0.5,0.1,0.8,0.2,1.2,0.2c0.3,0.1,0.7,0.2,1.1,0.4
		c0.4,0.2,0.7,0.3,1,0.5c0.3,0.2,0.5,0.4,0.8,0.7c0.3,0.3,0.5,0.6,0.7,0.9c0.2,0.3,0.3,0.7,0.4,1.1c0.1,0.4,0.1,0.8,0.1,1.2
		c0,0,0,0.1,0,0.2c0,1.2-0.4,2.2-1.1,3s-1.6,1.4-2.7,1.8s-2.3,0.6-3.7,0.6C345.3,31,342.6,29.9,340.9,27.7z"/>
</g>
</svg>
