<?xml version="1.0" encoding="utf-8"?>
<!-- Generator: Adobe Illustrator 24.0.0, SVG Export Plug-In . SVG Version: 6.00 Build 0)  -->
<svg version="1.1" id="Layer_1" xmlns="http://www.w3.org/2000/svg" xmlns:xlink="http://www.w3.org/1999/xlink" x="0px" y="0px"
	 viewBox="0 0 438.1 55.1" style="enable-background:new 0 0 438.1 55.1;" xml:space="preserve">
<style type="text/css">
	.st0{display:none;}
	.st1{display:inline;}
	.st2{fill:#FCB832;}
</style>
<g class="st0">
	<g class="st1">
		<path class="st2" d="M0.2,39.1V5.5h23.4v3.9H4.4v11.8h18.3v3.9H4.4v14H0.2z"/>
		<path class="st2" d="M28.6,8.1c0-0.8,0.3-1.4,0.8-1.9s1.1-0.7,1.8-0.7c0.7,0,1.3,0.2,1.8,0.7s0.8,1.1,0.8,1.9S33.5,9.5,33,10
			s-1.1,0.7-1.8,0.7s-1.3-0.2-1.8-0.7S28.6,8.9,28.6,8.1z M29.2,39.1V15.4h3.9v23.7H29.2L29.2,39.1z"/>
		<path class="st2" d="M38.8,22.4c0-2.4,0.4-4.7,1.2-6.9c0.8-2.1,1.9-4,3.4-5.6s3.3-2.8,5.4-3.7c2.2-0.9,4.6-1.4,7.1-1.4
			c2.2,0,4.2,0.3,6.1,1c1.9,0.6,3.5,1.5,4.8,2.7s2.4,2.4,3.4,3.9c0.9,1.5,1.6,3.1,2.1,4.8s0.7,3.4,0.7,5.2s-0.2,3.5-0.7,5.2
			s-1.1,3.2-2.1,4.7s-2,2.8-3.4,3.9c-1.3,1.1-2.9,2-4.8,2.6s-3.9,1-6.2,1c-2.2,0-4.3-0.3-6.2-1s-3.5-1.5-4.8-2.6s-2.5-2.4-3.4-3.9
			s-1.6-3.1-2.1-4.7C39,25.9,38.8,24.2,38.8,22.4z M43,22.4c0,1.4,0.2,2.7,0.5,4s0.8,2.5,1.5,3.7s1.5,2.2,2.5,3c1,0.9,2.2,1.5,3.6,2
			c1.4,0.5,3,0.7,4.7,0.7s3.3-0.3,4.7-0.8s2.6-1.2,3.6-2.1c1-0.9,1.8-1.9,2.5-3s1.2-2.4,1.5-3.7c0.3-1.3,0.5-2.6,0.5-4
			s-0.2-2.7-0.5-4s-0.8-2.5-1.5-3.7s-1.5-2.2-2.5-3.1c-1-0.9-2-1.3-3.5-1.9s-3-0.8-4.7-0.8c-2.1,0-4,0.4-5.6,1.1
			c-1.7,0.7-3,1.7-4.1,3s-1.8,2.7-2.4,4.4C43.3,18.8,43,20.5,43,22.4z"/>
		<path class="st2" d="M77.2,32l3.3-2.1c1.1,2,2.6,3.5,4.5,4.5s4,1.5,6.4,1.5c0.9,0,1.7-0.1,2.6-0.2c0.8-0.1,1.7-0.3,2.6-0.6
			s1.6-0.7,2.3-1.1s1.2-1.1,1.6-1.8c0.4-0.8,0.6-1.6,0.6-2.6c0-0.8-0.2-1.5-0.6-2.1s-0.8-1.1-1.4-1.6c-0.6-0.4-1.3-0.8-2.4-1.1
			c-1-0.3-1.9-0.6-2.7-0.7c-0.8-0.1-1.7-0.3-2.8-0.5c-1-0.2-1.9-0.4-2.6-0.5S87,22.8,86,22.5c-1-0.3-1.8-0.5-2.5-0.8s-1.3-0.7-2-1.1
			c-0.7-0.5-1.2-1-1.6-1.5c-0.4-0.6-0.8-1.2-1-2s-0.4-1.7-0.4-2.6c0-0.1,0-0.1,0-0.2c0-1.2,0.2-2.3,0.7-3.4s1.2-2,2.1-2.7
			s1.9-1.3,3-1.8s2.3-0.8,3.5-1c1.2-0.2,2.4-0.3,3.6-0.3c6,0,10.3,2.1,12.8,6.2l-3.2,2c-0.9-1.4-2.2-2.5-4-3.2S93.4,9,91.4,8.9
			c-1.5,0-2.9,0.2-4.2,0.6c-1.3,0.4-2.4,1.1-3.3,2s-1.3,2-1.3,3.2c0,0.7,0.2,1.4,0.5,2s0.7,1.1,1.2,1.5s1.2,0.7,2.1,1
			s1.7,0.4,2.5,0.6c0.8,0.1,1.7,0.3,2.7,0.5s1.9,0.4,2.7,0.5c0.8,0.1,1.7,0.4,2.8,0.7c1.1,0.3,1.9,0.7,2.7,1
			c0.7,0.3,1.4,0.7,2.1,1.2s1.3,1,1.7,1.6c0.4,0.6,0.8,1.3,1.1,2.1s0.4,1.7,0.4,2.7c0,1.5-0.3,2.8-0.8,4s-1.3,2.1-2.2,2.9
			c-0.9,0.8-1.9,1.4-3.2,1.9c-1.2,0.5-2.4,0.9-3.7,1.1c-1.2,0.2-2.5,0.3-3.9,0.3c-1.5,0-2.9-0.1-4.2-0.4c-1.4-0.3-2.7-0.7-3.9-1.3
			c-1.3-0.6-2.4-1.4-3.5-2.4C78.6,34.6,77.8,33.4,77.2,32z"/>
		<path class="st2" d="M108.6,10.7c0-0.9,0.1-1.8,0.5-2.6c0.2-0.8,0.7-1.5,1.3-2.1s1.2-1.1,2.1-1.4c0.8-0.4,1.8-0.5,2.8-0.5
			c1.1,0,2,0.1,2.8,0.5s1.5,0.8,2.1,1.4s0.9,1.3,1.3,2.1c0.2,0.8,0.5,1.6,0.5,2.6s-0.1,1.8-0.5,2.5c-0.2,0.8-0.7,1.5-1.3,2.1
			c-0.6,0.6-1.2,1.1-2.1,1.4c-0.9,0.4-1.8,0.5-2.8,0.5c-0.8,0-1.5-0.1-2.2-0.4c-0.7-0.2-1.3-0.6-1.9-0.9c-0.5-0.4-0.9-0.8-1.3-1.4
			s-0.6-1.2-0.8-1.8C108.7,12,108.6,11.4,108.6,10.7z M110,10.7L110,10.7c0,0.7,0.1,1.4,0.4,2c0.2,0.7,0.6,1.2,0.9,1.6
			c0.5,0.5,0.9,0.8,1.6,1.2c0.7,0.2,1.4,0.4,2.1,0.4c0.8,0,1.5-0.1,2.1-0.5c0.7-0.2,1.2-0.7,1.6-1.2c0.5-0.5,0.7-1.1,0.9-1.6
			s0.4-1.3,0.4-2.1c0-0.7-0.1-1.4-0.4-2.1c-0.2-0.6-0.6-1.2-0.9-1.6c-0.5-0.5-0.9-0.8-1.6-1.2c-0.5,0-1.2-0.2-2-0.2
			c-1.1,0-2,0.2-2.7,0.7c-0.8,0.5-1.4,1.1-1.8,1.9C110.2,8.7,110,9.6,110,10.7z M112.7,14V7.2h3.1c0.5,0,0.8,0.1,1.3,0.2
			c0.4,0.2,0.6,0.5,0.8,0.7c0.2,0.2,0.2,0.6,0.4,0.9c0,0.4,0,0.7-0.1,0.9c-0.1,0.4-0.4,0.6-0.6,0.8s-0.6,0.4-1.1,0.5l0,0l1.9,2.2
			v0.2h-1.3l-1.9-2.2H114v2.4h-1.3C112.7,13.8,112.7,14,112.7,14z M113.9,10.6h1.8c0.2,0,0.4,0,0.6-0.1s0.2-0.2,0.4-0.4
			c0.1-0.1,0.1-0.2,0.2-0.5c0-0.1,0-0.4,0-0.5s-0.1-0.4-0.2-0.5s-0.2-0.2-0.4-0.4c-0.1-0.1-0.4-0.1-0.6-0.1h-1.8V10.6L113.9,10.6z"
			/>
		<path class="st2" d="M142.1,39.1V5.5h4.2v33.6H142.1L142.1,39.1z"/>
		<path class="st2" d="M154.6,39.1V15.4h3.6l0.2,3.6c2-2.8,4.6-4.2,8-4.2c3,0,5.4,1,7.3,2.9c1.8,1.9,2.8,4.7,2.8,8.2v13.2h-3.9V25.9
			c0-2.4-0.6-4.3-1.7-5.6c-1.2-1.3-2.9-1.9-5.1-1.9c-2.1,0-3.8,0.8-5.2,2.3c-1.3,1.5-2,3.4-2,5.6v12.8H154.6z"/>
		<path class="st2" d="M180.6,18.6v-3.4h4.7V8.9l4-0.4v6.8h7.3v3.4h-7.4v13c0,1.5,0.3,2.6,0.8,3.4s1.5,1.2,2.9,1.2
			c0.9,0,2-0.3,3.3-0.9l1.1,3.2c-1.6,0.7-3.1,1.1-4.6,1.2c-0.1,0-0.2,0-0.3,0c-2.3,0-4.1-0.7-5.3-2c-1.2-1.4-1.9-3.4-1.9-6.1V18.6
			H180.6z"/>
		<path class="st2" d="M200.2,27.1c0-3.6,1.2-6.5,3.5-8.8s5.2-3.5,8.8-3.5c1.8,0,3.5,0.3,5,0.8s2.8,1.4,3.9,2.5
			c1.1,1.1,1.9,2.5,2.4,4.3c0.4,1.2,0.5,2.6,0.5,4.1c0,0.6,0,1.3-0.1,2H204c0.2,2.3,1.1,4.1,2.7,5.5c1.6,1.4,3.6,2,5.9,2
			c1.4,0,2.8-0.3,4.3-0.8c1.4-0.5,2.5-1.2,3.2-2.2l2.7,2.4l0,0c-1.2,1.4-2.7,2.4-4.5,3.1c-1.8,0.7-3.7,1.1-5.7,1.1
			c-3.7,0-6.7-1.1-9-3.4S200.2,30.9,200.2,27.1z M204.1,25.3h16.4c-0.1-2.2-0.8-4-2.2-5.2s-3.3-1.8-5.7-1.8c-2.2,0-4,0.6-5.6,1.8
			S204.5,23,204.1,25.3z"/>
		<path class="st2" d="M229.8,39.1V15.4h3.6l0.4,3.5c1.5-2.7,3.9-4,7.3-4c0.1,0,0.1,0,0.2,0c1.8,0,3.6,0.6,5.3,1.9l-1.8,3.4
			c-1.2-0.9-2.6-1.3-4.1-1.3c-2,0-3.6,0.7-4.9,2s-2,3-2,5.1v13.1H229.8L229.8,39.1L229.8,39.1z"/>
		<path class="st2" d="M250.8,39.1V15.4h3.6l0.2,3.6c2-2.8,4.6-4.2,8-4.2c3,0,5.4,1,7.3,2.9c1.8,1.9,2.8,4.7,2.8,8.2v13.2h-3.9V25.9
			c0-2.4-0.6-4.3-1.7-5.6c-1.2-1.3-2.9-1.9-5.1-1.9c-2.1,0-3.8,0.8-5.2,2.3c-1.3,1.5-2,3.4-2,5.6v12.8H250.8z"/>
		<path class="st2" d="M278,27.1c0-3.6,1.2-6.5,3.5-8.8s5.2-3.5,8.8-3.5c1.8,0,3.5,0.3,5,0.8s2.8,1.4,3.9,2.5s1.9,2.5,2.4,4.3
			c0.4,1.2,0.5,2.6,0.5,4.1c0,0.6,0,1.3-0.1,2h-20.2c0.2,2.3,1.1,4.1,2.7,5.5s3.6,2,5.9,2c1.4,0,2.8-0.3,4.3-0.8
			c1.4-0.5,2.5-1.2,3.2-2.2l2.7,2.4l0,0c-1.2,1.4-2.7,2.4-4.5,3.1c-1.8,0.7-3.7,1.1-5.7,1.1c-3.7,0-6.7-1.1-9-3.4S278,30.9,278,27.1
			z M282,25.3h16.4c-0.1-2.2-0.8-4-2.2-5.2s-3.3-1.8-5.7-1.8c-2.2,0-4,0.6-5.6,1.8S282.3,23,282,25.3z"/>
		<path class="st2" d="M305.4,18.6v-3.4h4.7V8.9l4-0.4v6.8h7.3v3.4H314v13c0,1.5,0.3,2.6,0.8,3.4s1.5,1.2,2.9,1.2
			c0.9,0,2-0.3,3.3-0.9l1.1,3.2c-1.6,0.7-3.1,1.1-4.6,1.2c-0.1,0-0.2,0-0.3,0c-2.3,0-4.1-0.7-5.3-2c-1.2-1.4-1.9-3.4-1.9-6.1V18.6
			H305.4z"/>
	</g>
</g>
<g>
	<path class="st2" d="M2.6,30.9H8c0,0.8,0.2,1.5,0.5,2.2c0.4,0.6,0.8,1.1,1.3,1.5c0.5,0.4,1.2,0.7,1.9,0.9s1.5,0.4,2.2,0.5
		c0.7,0.1,1.4,0.1,2.2,0.1c1.4,0,2.7-0.2,3.8-0.6c1.2-0.4,2.1-1.1,2.9-2s1.1-2.1,1.1-3.4c0-1.9-0.7-3.3-2.1-4.3s-3.3-1.5-5.6-1.5
		H3.4V7.2h24.1v5H8.6v7.2h7.6c2.6,0,4.9,0.4,6.8,1.1c1.9,0.8,3.5,2,4.6,3.6s1.7,3.6,1.7,6c0,2.3-0.6,4.3-1.8,6
		c-1.2,1.7-2.8,3-4.7,3.8c-2,0.8-4.2,1.3-6.7,1.3c-1.5,0-2.8-0.1-4.1-0.3s-2.5-0.6-3.7-1s-2.2-1.1-3-1.9c-0.8-0.8-1.5-1.7-2-2.9
		C2.9,33.8,2.6,32.4,2.6,30.9z"/>
	<path class="st2" d="M34.2,26.9v-5.9c0-1.9,0.3-3.6,0.8-5.2c0.5-1.6,1.2-3,2.1-4.1c0.9-1.1,2-2.1,3.2-2.9s2.5-1.4,3.8-1.8
		s2.7-0.6,4.2-0.6c1.8,0,3.5,0.3,5.2,0.9s3.1,1.5,4.5,2.7c1.3,1.2,2.4,2.7,3.2,4.6c0.8,1.9,1.2,4,1.2,6.4v5.9c0,2.3-0.4,4.5-1.2,6.4
		c-0.8,1.9-1.9,3.4-3.2,4.6s-2.8,2.1-4.5,2.7c-1.6,0.6-3.4,0.9-5.2,0.9s-3.5-0.3-5.2-0.9c-1.7-0.6-3.2-1.5-4.5-2.7s-2.4-2.7-3.2-4.6
		S34.2,29.3,34.2,26.9z M39.6,26.9c0,1.5,0.2,2.9,0.7,4.2c0.5,1.2,1.2,2.3,2,3c0.8,0.8,1.8,1.4,2.8,1.8c1,0.4,2.1,0.6,3.2,0.6
		c1.1,0,2.2-0.2,3.2-0.6s1.9-1,2.8-1.8c0.8-0.8,1.5-1.8,2-3c0.5-1.2,0.7-2.6,0.7-4.2v-5.9c0-1.5-0.2-2.9-0.7-4.1
		c-0.5-1.2-1.2-2.2-2-3c-0.8-0.8-1.8-1.3-2.8-1.7s-2.1-0.6-3.2-0.6c-1.1,0-2.2,0.2-3.2,0.6c-1,0.4-1.9,1-2.8,1.7
		c-0.8,0.8-1.5,1.8-2,3c-0.5,1.2-0.7,2.6-0.7,4.1V26.9z"/>
	<path class="st2" d="M67.8,26.9v-5.9c0-1.9,0.3-3.6,0.8-5.2c0.5-1.6,1.2-3,2.1-4.1c0.9-1.1,2-2.1,3.2-2.9s2.5-1.4,3.8-1.8
		s2.7-0.6,4.2-0.6c1.8,0,3.5,0.3,5.2,0.9s3.1,1.5,4.5,2.7c1.3,1.2,2.4,2.7,3.2,4.6c0.8,1.9,1.2,4,1.2,6.4v5.9c0,2.3-0.4,4.5-1.2,6.4
		c-0.8,1.9-1.9,3.4-3.2,4.6S88.6,40,87,40.6c-1.6,0.6-3.4,0.9-5.2,0.9s-3.5-0.3-5.2-0.9c-1.7-0.6-3.2-1.5-4.5-2.7s-2.4-2.7-3.2-4.6
		S67.8,29.3,67.8,26.9z M73.1,26.9c0,1.5,0.2,2.9,0.7,4.2c0.5,1.2,1.2,2.3,2,3c0.8,0.8,1.8,1.4,2.8,1.8c1,0.4,2.1,0.6,3.2,0.6
		c1.1,0,2.2-0.2,3.2-0.6s1.9-1,2.8-1.8c0.8-0.8,1.5-1.8,2-3c0.5-1.2,0.7-2.6,0.7-4.2v-5.9c0-1.5-0.2-2.9-0.7-4.1
		c-0.5-1.2-1.2-2.2-2-3C87,13.2,86,12.6,85,12.2s-2.1-0.6-3.2-0.6c-1.1,0-2.2,0.2-3.2,0.6c-1,0.4-1.9,1-2.8,1.7
		c-0.8,0.8-1.5,1.8-2,3c-0.5,1.2-0.7,2.6-0.7,4.1V26.9z"/>
	<path class="st2" d="M114.8,40.9V7.2h6.2L132.1,23l11-15.8h6.2v33.6H144V15.1L132.6,31h-1.1l-11.3-15.9v25.8H114.8z"/>
	<path class="st2" d="M156.9,40.8V7.2h4.9v13.6c0.7-1.3,1.9-2.4,3.5-3.1s3.2-1.1,4.8-1.1c3.5,0,6.4,1.1,8.6,3.2s3.3,5.2,3.3,9.1
		c0,3.8-1.1,6.8-3.4,9c-2.3,2.2-5.2,3.3-8.7,3.3c-1.7,0-3.3-0.3-4.7-1c-1.4-0.7-2.6-1.7-3.5-3.2l-0.3,3.7H156.9z M162.2,29
		c0,2.3,0.7,4.2,2.2,5.6c1.5,1.4,3.2,2.2,5.4,2.2c2.1,0,3.9-0.7,5.3-2.1c1.4-1.4,2.2-3.3,2.2-5.6s-0.7-4.2-2.2-5.6
		c-1.4-1.4-3.2-2.1-5.3-2.1s-3.9,0.7-5.4,2.2C162.9,24.8,162.2,26.7,162.2,29z"/>
	<path class="st2" d="M187.5,51.8V17.1h4.7l0.3,3.8c0.9-1.4,2.1-2.5,3.6-3.2s3.1-1.1,4.8-1.1c3.5,0,6.4,1.2,8.6,3.5s3.3,5.3,3.3,8.8
		c0,3.7-1.1,6.7-3.3,9s-5.1,3.5-8.7,3.5c-1.7,0-3.3-0.3-4.8-1s-2.7-1.6-3.6-3v14.3H187.5z M192.8,29c0,2.1,0.7,3.9,2.1,5.4
		s3.2,2.2,5.3,2.2c2.2,0,4-0.7,5.4-2.2s2.1-3.3,2.1-5.5c0-2.2-0.7-4.1-2.1-5.4s-3.2-2.1-5.4-2.1c-2.2,0-4,0.7-5.4,2.1
		S192.8,26.8,192.8,29z"/>
	<path class="st2" d="M216.1,37.2l2.6-3.5c1.1,1.2,2.3,2,3.8,2.6s3,0.9,4.5,0.9c0.8,0,1.6-0.1,2.3-0.3c0.7-0.2,1.4-0.5,1.9-1
		c0.5-0.5,0.8-1.1,0.8-1.8c0-1-0.5-1.7-1.3-2.2c-0.9-0.5-2.3-0.8-4.1-1c-1-0.2-1.9-0.3-2.7-0.4c-0.8-0.1-1.7-0.4-2.6-0.7
		c-0.9-0.4-1.6-0.8-2.2-1.3c-0.6-0.5-1.1-1.1-1.5-1.9c-0.4-0.8-0.6-1.7-0.6-2.7c0-1.3,0.3-2.4,0.9-3.3s1.4-1.7,2.4-2.2
		c1-0.5,2-0.9,3.1-1.2c1.1-0.3,2.3-0.4,3.4-0.4c1.9,0,3.5,0.2,5,0.7c1.4,0.5,2.8,1.3,4.1,2.4l-2.8,3.3c-0.9-0.8-1.8-1.4-2.8-1.7
		c-1-0.3-2.1-0.5-3.4-0.5c-0.1,0-0.2,0-0.3,0c-1.4,0-2.6,0.2-3.4,0.7c-0.9,0.5-1.3,1.2-1.3,2.1s0.5,1.6,1.3,2.1
		c0.9,0.5,2.1,0.8,3.8,0.9c0.7,0.1,1.4,0.2,1.9,0.2c0.6,0.1,1.2,0.2,1.9,0.3s1.4,0.4,1.9,0.6c0.5,0.2,1.1,0.5,1.6,0.9
		c0.6,0.4,1,0.8,1.4,1.3c0.4,0.5,0.7,1.1,0.9,1.8c0.2,0.7,0.3,1.5,0.3,2.3c0,2.2-0.9,4-2.8,5.4c-1.8,1.4-4.3,2.1-7.3,2.1
		c-2.2,0-4.1-0.3-5.9-1C219.2,39.9,217.6,38.8,216.1,37.2z"/>
	<path class="st2" d="M254.7,40.8V7.2h5.4v33.6H254.7z"/>
	<path class="st2" d="M267.4,40.8V17.1h4.5l0.3,3.5c2.2-2.6,4.9-3.9,8-3.9c3,0,5.4,1,7.3,3c1.9,2,2.8,4.8,2.8,8.4v12.7h-4.9V28.1
		c0-2.1-0.6-3.8-1.7-5s-2.7-1.9-4.7-1.9c-2,0-3.5,0.7-4.8,2.1s-1.9,3.1-1.9,5.1v12.4H267.4z"/>
	<path class="st2" d="M294.3,21.5v-4.4h4.6v-6.3l5-0.5v6.8h6.9v4.4h-7v11.2c0,2.6,1.1,3.9,3.4,3.9c1,0,2.1-0.3,3-0.8l1.5,4.2
		c-1.6,0.7-3.2,1.1-4.8,1.1c-0.1,0-0.3,0-0.4,0c-2.4,0-4.3-0.7-5.6-2c-1.4-1.4-2.1-3.5-2.1-6.3V21.5H294.3z"/>
	<path class="st2" d="M314.3,28.9c0-3.6,1.2-6.6,3.5-8.9s5.3-3.5,9-3.5c4,0,7.1,1.2,9.3,3.7c1.8,2,2.7,4.8,2.7,8.4
		c0,0.7,0,1.4-0.1,2.2h-19.2c0.2,1.8,1,3.3,2.4,4.3c1.4,1.1,3.2,1.6,5.3,1.6c1.3,0,2.6-0.2,3.9-0.7c1.3-0.4,2.3-1.1,3-1.9l3.2,3.1
		c-1.2,1.3-2.7,2.3-4.5,3c-1.8,0.7-3.7,1-5.7,1c-3.9,0-7-1.1-9.3-3.4S314.3,32.7,314.3,28.9z M319.5,26.7h14.4
		c-0.2-1.9-0.9-3.3-2.1-4.3c-1.2-1-2.9-1.5-4.9-1.5c-1.9,0-3.5,0.5-4.8,1.5C320.7,23.5,319.9,24.9,319.5,26.7z"/>
	<path class="st2" d="M343.6,40.8V17.1h4.6l0.3,3.1c0.8-1.4,1.8-2.3,3-2.9s2.5-0.8,4-0.8c1.1,0,2.2,0.2,3.3,0.6s1.9,0.9,2.6,1.5
		l-2.2,4.3c-0.6-0.5-1.2-0.9-1.9-1.1s-1.4-0.3-2.3-0.3c-1.8,0-3.3,0.6-4.6,1.7s-1.8,2.7-1.8,4.8v12.8H343.6z"/>
	<path class="st2" d="M364.8,40.8V17.1h4.5l0.3,3.5c2.2-2.6,4.9-3.9,8-3.9c3,0,5.4,1,7.3,3c1.9,2,2.8,4.8,2.8,8.4v12.7h-4.9V28.1
		c0-2.1-0.6-3.8-1.7-5s-2.7-1.9-4.7-1.9c-2,0-3.5,0.7-4.8,2.1s-1.9,3.1-1.9,5.1v12.4H364.8z"/>
	<path class="st2" d="M392.6,28.9c0-3.6,1.2-6.6,3.5-8.9s5.3-3.5,9-3.5c4,0,7.1,1.2,9.3,3.7c1.8,2,2.7,4.8,2.7,8.4
		c0,0.7,0,1.4-0.1,2.2h-19.2c0.2,1.8,1,3.3,2.4,4.3c1.4,1.1,3.2,1.6,5.3,1.6c1.3,0,2.6-0.2,3.9-0.7c1.3-0.4,2.3-1.1,3-1.9l3.2,3.1
		c-1.2,1.3-2.7,2.3-4.5,3c-1.8,0.7-3.7,1-5.7,1c-3.9,0-7-1.1-9.3-3.4S392.6,32.7,392.6,28.9z M397.8,26.7h14.4
		c-0.2-1.9-0.9-3.3-2.1-4.3c-1.2-1-2.9-1.5-4.9-1.5c-1.9,0-3.5,0.5-4.8,1.5C399,23.5,398.2,24.9,397.8,26.7z"/>
	<path class="st2" d="M420,21.5v-4.4h4.6v-6.3l5-0.5v6.8h6.9v4.4h-7v11.2c0,2.6,1.1,3.9,3.4,3.9c1,0,2.1-0.3,3-0.8l1.5,4.2
		c-1.6,0.7-3.2,1.1-4.8,1.1c-0.1,0-0.3,0-0.4,0c-2.4,0-4.3-0.7-5.6-2c-1.4-1.4-2.1-3.5-2.1-6.3V21.5H420z"/>
</g>
</svg>
