<?xml version="1.0" encoding="utf-8"?>
<!-- Generator: Adobe Illustrator 24.0.0, SVG Export Plug-In . SVG Version: 6.00 Build 0)  -->
<svg version="1.1" id="Layer_1" xmlns="http://www.w3.org/2000/svg" xmlns:xlink="http://www.w3.org/1999/xlink" x="0px" y="0px"
	 viewBox="0 0 271.5 127.7" style="enable-background:new 0 0 271.5 127.7;" xml:space="preserve">
<style type="text/css">
	.st0{fill:#FFFFFF;}
</style>
<g>
	<path class="st0" d="M3.2,27.6V2.4h4v21.5h13.3v3.7H3.2z"/>
	<path class="st0" d="M22.4,18.7c0-2.7,0.9-4.9,2.6-6.7s4-2.6,6.7-2.6c3,0,5.3,0.9,7,2.7c1.4,1.5,2.1,3.6,2.1,6.3
		c0,0.5,0,1.1-0.1,1.7H26.2c0.2,1.4,0.8,2.4,1.8,3.2c1,0.8,2.4,1.2,4,1.2c1,0,1.9-0.2,2.9-0.5c1-0.3,1.7-0.8,2.2-1.4l2.4,2.3
		c-0.9,1-2,1.7-3.4,2.3s-2.8,0.8-4.2,0.8c-2.9,0-5.2-0.9-7-2.6S22.4,21.6,22.4,18.7z M26.3,17.1h10.8c-0.1-1.4-0.6-2.5-1.6-3.2
		s-2.2-1.1-3.7-1.1c-1.4,0-2.6,0.4-3.6,1.1C27.2,14.6,26.6,15.7,26.3,17.1z"/>
	<path class="st0" d="M43,13.2V9.9h3.4V5.1l3.7-0.4v5.1h5.2v3.3h-5.2v8.4c0,1.9,0.8,2.9,2.5,2.9c0.8,0,1.5-0.2,2.3-0.6L56,27
		c-1.2,0.5-2.4,0.8-3.6,0.8c-0.1,0-0.2,0-0.3,0c-1.8,0-3.2-0.5-4.2-1.5c-1-1.1-1.5-2.6-1.5-4.7v-8.4H43z"/>
	<path class="st0" d="M67.7,19.5V9.9h3.7v9.6c0,1.5,0.4,2.8,1.3,3.7c0.8,0.9,2,1.4,3.6,1.4c1.4,0,2.6-0.5,3.6-1.5
		c0.9-1,1.4-2.3,1.4-3.8V9.9h3.7v17.7h-3.4l-0.2-2.5c-0.9,1-1.8,1.7-2.8,2.2c-1,0.5-2.1,0.7-3.3,0.7c-2.2,0-4-0.8-5.4-2.3
		S67.7,22.2,67.7,19.5z"/>
	<path class="st0" d="M88.5,24.9l2-2.6c0.8,0.9,1.7,1.5,2.8,1.9c1.1,0.4,2.2,0.7,3.4,0.7c0.6,0,1.2-0.1,1.7-0.2
		c0.6-0.1,1-0.4,1.4-0.8c0.4-0.4,0.6-0.8,0.6-1.4c0-0.7-0.3-1.3-1-1.7c-0.7-0.4-1.7-0.6-3.1-0.7c-0.7-0.1-1.4-0.2-2-0.3
		c-0.6-0.1-1.3-0.3-1.9-0.6c-0.7-0.3-1.2-0.6-1.7-1c-0.5-0.4-0.8-0.9-1.1-1.5s-0.4-1.3-0.4-2c0-0.9,0.2-1.8,0.7-2.5
		c0.5-0.7,1-1.3,1.8-1.7c0.7-0.4,1.5-0.7,2.4-0.9c0.8-0.2,1.7-0.3,2.6-0.3c1.4,0,2.6,0.2,3.7,0.5s2.1,1,3.1,1.8l-2.1,2.4
		c-0.7-0.6-1.4-1-2.1-1.3c-0.7-0.2-1.6-0.4-2.5-0.4c-0.1,0-0.1,0-0.2,0c-1.1,0-1.9,0.2-2.6,0.5c-0.7,0.4-1,0.9-1,1.6
		c0,0.7,0.3,1.2,1,1.5s1.6,0.6,2.8,0.7c0.5,0.1,1,0.1,1.5,0.2s0.9,0.1,1.5,0.3c0.5,0.1,1,0.3,1.4,0.4c0.4,0.2,0.8,0.4,1.2,0.7
		c0.4,0.3,0.8,0.6,1,1c0.3,0.4,0.5,0.8,0.7,1.4c0.2,0.5,0.3,1.1,0.3,1.8c0,1.7-0.7,3-2.1,4.1c-1.4,1-3.2,1.6-5.5,1.6
		c-1.6,0-3.1-0.2-4.4-0.7S89.6,26.1,88.5,24.9z"/>
	<path class="st0" d="M115.7,18.4c0-1.4,0.3-2.7,0.8-3.9c0.6-1.2,1.3-2.1,2.2-2.8c0.9-0.7,1.9-1.3,3.1-1.6c1.1-0.4,2.3-0.6,3.5-0.6
		c0.8,0,1.7,0.1,2.6,0.3s1.6,0.5,2.2,0.9l2-2.4l2.7,2.1l-2.1,2.5c0.8,0.9,1.3,1.8,1.6,2.6s0.5,1.8,0.5,2.9c0,1.6-0.4,3-1.2,4.2
		c-0.8,1.2-2,2.1-3.5,2.7c1.7,0.6,2.9,1.4,3.6,2.4s1.1,2.2,1.1,3.4c0,1.2-0.3,2.2-0.8,3.2c-0.5,0.9-1.3,1.7-2.2,2.3
		c-0.9,0.6-1.9,1-3,1.3s-2.3,0.5-3.5,0.5c-2.9,0-5.2-0.7-6.9-2.1c-1.6-1.3-2.4-3.2-2.4-5.4c0-0.1,0-0.2,0-0.3h3.7c0,0,0,0.1,0,0.2
		c0,1.2,0.5,2.2,1.6,3c1.1,0.8,2.5,1.2,4,1.2c1,0,1.9-0.1,2.7-0.4c0.8-0.3,1.5-0.7,2.1-1.2c0.6-0.6,0.9-1.2,0.9-2
		c0-1.2-0.5-2.2-1.5-2.8c-1-0.7-2.4-1-4.1-1c-2.9,0-5.2-0.8-7-2.4S115.7,21.1,115.7,18.4z M119.5,18.4c0,1.7,0.6,3,1.7,4
		s2.5,1.4,4.2,1.4c1.7,0,3-0.5,4.1-1.5c1.1-1,1.6-2.3,1.6-3.9c0-1.7-0.6-3-1.7-4s-2.5-1.5-4.1-1.5c-1,0-2,0.2-2.9,0.6
		s-1.6,1-2.2,1.9S119.5,17.2,119.5,18.4z"/>
	<path class="st0" d="M138.6,19.5V9.9h3.7v9.6c0,1.5,0.4,2.8,1.3,3.7c0.8,0.9,2,1.4,3.6,1.4c1.4,0,2.6-0.5,3.6-1.5
		c0.9-1,1.4-2.3,1.4-3.8V9.9h3.7v17.7h-3.4l-0.2-2.5c-0.9,1-1.8,1.7-2.8,2.2s-2.1,0.7-3.3,0.7c-2.2,0-4-0.8-5.4-2.3
		S138.6,22.2,138.6,19.5z"/>
	<path class="st0" d="M161.1,6.3c-0.5-0.4-0.7-1-0.7-1.7s0.2-1.3,0.7-1.7s1-0.6,1.6-0.6s1.2,0.2,1.6,0.6s0.7,1,0.7,1.7
		s-0.2,1.3-0.7,1.7s-1,0.6-1.6,0.6S161.5,6.7,161.1,6.3z M160.8,27.6V9.8h3.7v17.8H160.8z"/>
	<path class="st0" d="M168.5,18.7c0-2.9,0.8-5.2,2.5-6.8c1.7-1.6,3.8-2.4,6.5-2.4c1.2,0,2.4,0.3,3.6,0.8s2.1,1.3,2.6,2.3V2.4h3.7
		v25.2h-3.5l-0.2-2.8c-0.7,1.1-1.5,1.9-2.6,2.4s-2.3,0.8-3.5,0.8c-2.6,0-4.8-0.8-6.5-2.5S168.5,21.6,168.5,18.7z M173.8,14.5
		c-1.1,1-1.6,2.5-1.6,4.2s0.5,3.2,1.6,4.2c1.1,1.1,2.4,1.6,4,1.6c1.6,0,2.9-0.5,4-1.6s1.7-2.5,1.7-4.2c0-1.7-0.6-3.1-1.7-4.2
		c-1.1-1.1-2.4-1.6-4-1.6C176.2,12.9,174.8,13.5,173.8,14.5z"/>
	<path class="st0" d="M191.4,18.7c0-2.7,0.9-4.9,2.6-6.7s4-2.6,6.7-2.6c3,0,5.3,0.9,7,2.7c1.4,1.5,2.1,3.6,2.1,6.3
		c0,0.5,0,1.1-0.1,1.7h-14.4c0.2,1.4,0.8,2.4,1.8,3.2c1,0.8,2.4,1.2,4,1.2c1,0,1.9-0.2,2.9-0.5c1-0.3,1.7-0.8,2.2-1.4l2.4,2.3
		c-0.9,1-2,1.7-3.4,2.3s-2.8,0.8-4.2,0.8c-2.9,0-5.2-0.9-7-2.6S191.4,21.6,191.4,18.7z M195.3,17.1h10.8c-0.1-1.4-0.6-2.5-1.6-3.2
		s-2.2-1.1-3.7-1.1c-1.4,0-2.6,0.4-3.6,1.1C196.2,14.6,195.6,15.7,195.3,17.1z"/>
	<path class="st0" d="M1.1,54.2v-3.3h3.4v-4.7l3.7-0.4v5.1h5.2v3.3H8.2v8.4c0,1.9,0.8,2.9,2.5,2.9c0.8,0,1.5-0.2,2.3-0.6l1.1,3.2
		c-1.2,0.5-2.4,0.8-3.6,0.8c-0.1,0-0.2,0-0.3,0c-1.8,0-3.2-0.5-4.2-1.5c-1-1.1-1.5-2.6-1.5-4.7v-8.4H1.1z"/>
	<path class="st0" d="M17.2,68.6V43.4h3.7v9.9c1.4-1.9,3.3-2.9,5.8-2.9c2.4,0,4.3,0.7,5.5,2.2s1.8,3.6,1.8,6.2v9.7h-3.7v-9.7
		c0-1.6-0.4-2.9-1.2-3.7s-1.9-1.3-3.3-1.3c-1.4,0-2.6,0.5-3.5,1.5s-1.4,2.3-1.4,3.8v9.4H17.2z"/>
	<path class="st0" d="M37.6,59.7c0-2.7,0.9-4.9,2.6-6.7s4-2.6,6.7-2.6c3,0,5.3,0.9,7,2.7c1.4,1.5,2.1,3.6,2.1,6.3
		c0,0.5,0,1.1-0.1,1.7H41.5c0.2,1.4,0.8,2.4,1.8,3.2c1,0.8,2.4,1.2,4,1.2c1,0,1.9-0.2,2.9-0.5s1.7-0.8,2.2-1.4l2.4,2.3
		c-0.9,1-2,1.7-3.4,2.3s-2.8,0.8-4.2,0.8c-2.9,0-5.2-0.9-7-2.6S37.6,62.6,37.6,59.7z M41.6,58.1h10.8c-0.1-1.4-0.6-2.5-1.6-3.2
		s-2.2-1.1-3.7-1.1c-1.4,0-2.6,0.4-3.6,1.1C42.5,55.6,41.8,56.7,41.6,58.1z"/>
	<path class="st0" d="M67.2,65.9l2-2.6c0.8,0.9,1.7,1.5,2.8,1.9c1.1,0.4,2.2,0.7,3.4,0.7c0.6,0,1.2-0.1,1.7-0.2
		c0.6-0.1,1-0.4,1.4-0.8c0.4-0.4,0.6-0.8,0.6-1.4c0-0.7-0.3-1.3-1-1.7c-0.7-0.4-1.7-0.6-3.1-0.7c-0.7-0.1-1.4-0.2-2-0.3
		c-0.6-0.1-1.3-0.3-1.9-0.6s-1.2-0.6-1.7-1c-0.5-0.4-0.8-0.9-1.1-1.5s-0.4-1.3-0.4-2c0-0.9,0.2-1.8,0.7-2.5c0.5-0.7,1-1.3,1.8-1.7
		s1.5-0.7,2.4-0.9s1.7-0.3,2.6-0.3c1.4,0,2.6,0.2,3.7,0.5s2.1,1,3.1,1.8l-2.1,2.4c-0.7-0.6-1.4-1-2.1-1.3c-0.7-0.2-1.6-0.4-2.5-0.4
		c-0.1,0-0.1,0-0.2,0c-1.1,0-1.9,0.2-2.6,0.5c-0.7,0.4-1,0.9-1,1.6c0,0.7,0.3,1.2,1,1.5c0.6,0.3,1.6,0.6,2.8,0.7
		c0.5,0.1,1,0.1,1.5,0.2s0.9,0.1,1.5,0.3s1,0.3,1.4,0.4c0.4,0.2,0.8,0.4,1.2,0.7s0.8,0.6,1,1c0.3,0.4,0.5,0.8,0.7,1.4
		c0.2,0.5,0.3,1.1,0.3,1.8c0,1.7-0.7,3-2.1,4.1c-1.4,1-3.2,1.6-5.5,1.6c-1.6,0-3.1-0.2-4.4-0.7S68.3,67.1,67.2,65.9z"/>
	<path class="st0" d="M86.5,76.8v-26H90l0.2,2.9c0.7-1,1.6-1.8,2.7-2.4s2.3-0.8,3.6-0.8c2.6,0,4.8,0.9,6.5,2.6s2.5,4,2.5,6.6
		c0,2.8-0.8,5-2.4,6.7s-3.8,2.6-6.5,2.6c-1.2,0-2.4-0.2-3.6-0.7s-2.1-1.2-2.7-2.3v10.8H86.5z M90.6,59.7c0,1.6,0.5,3,1.6,4.1
		s2.4,1.7,4,1.7c1.6,0,3-0.5,4-1.6s1.6-2.5,1.6-4.1c0-1.7-0.5-3-1.5-4.1s-2.4-1.6-4.1-1.6c-1.7,0-3,0.5-4,1.6S90.6,58.1,90.6,59.7z"
		/>
	<path class="st0" d="M108.4,59.7c0-2.7,0.9-4.9,2.6-6.7s4-2.6,6.7-2.6c3,0,5.3,0.9,7,2.7c1.4,1.5,2.1,3.6,2.1,6.3
		c0,0.5,0,1.1-0.1,1.7h-14.4c0.2,1.4,0.8,2.4,1.8,3.2c1,0.8,2.4,1.2,4,1.2c1,0,1.9-0.2,2.9-0.5s1.7-0.8,2.2-1.4l2.4,2.3
		c-0.9,1-2,1.7-3.4,2.3s-2.8,0.8-4.2,0.8c-2.9,0-5.2-0.9-7-2.6S108.4,62.6,108.4,59.7z M112.3,58.1H123c-0.1-1.4-0.6-2.5-1.6-3.2
		s-2.2-1.1-3.7-1.1c-1.4,0-2.6,0.4-3.6,1.1C113.2,55.6,112.6,56.7,112.3,58.1z"/>
	<path class="st0" d="M129.3,59.7c0-2.7,0.9-4.9,2.6-6.7s4-2.6,6.7-2.6c3,0,5.3,0.9,7,2.7c1.4,1.5,2.1,3.6,2.1,6.3
		c0,0.5,0,1.1-0.1,1.7h-14.4c0.2,1.4,0.8,2.4,1.8,3.2c1,0.8,2.4,1.2,4,1.2c1,0,1.9-0.2,2.9-0.5s1.7-0.8,2.2-1.4l2.4,2.3
		c-0.9,1-2,1.7-3.4,2.3s-2.8,0.8-4.2,0.8c-2.9,0-5.2-0.9-7-2.6S129.3,62.6,129.3,59.7z M133.2,58.1H144c-0.1-1.4-0.6-2.5-1.6-3.2
		s-2.2-1.1-3.7-1.1c-1.4,0-2.6,0.4-3.6,1.1C134.1,55.6,133.5,56.7,133.2,58.1z"/>
	<path class="st0" d="M150.2,59.7c0-2.9,0.8-5.2,2.5-6.8s3.8-2.4,6.5-2.4c1.2,0,2.4,0.3,3.6,0.8s2.1,1.3,2.6,2.3V43.4h3.7v25.2h-3.5
		l-0.2-2.8c-0.7,1.1-1.5,1.9-2.6,2.4s-2.3,0.8-3.5,0.8c-2.6,0-4.8-0.8-6.5-2.5S150.2,62.6,150.2,59.7z M155.5,55.5
		c-1.1,1-1.6,2.5-1.6,4.2s0.5,3.2,1.6,4.2s2.4,1.6,4,1.6c1.6,0,2.9-0.5,4-1.6s1.7-2.5,1.7-4.2c0-1.7-0.6-3.1-1.7-4.2s-2.4-1.6-4-1.6
		C157.9,53.9,156.6,54.5,155.5,55.5z"/>
	<path class="st0" d="M180.9,54.3v-3.3h3.4v-1.3c0-2.1,0.6-3.8,1.8-5c1.2-1.2,2.7-1.8,4.6-1.8c1.5,0,3,0.5,4.4,1.4l-1.4,2.8
		c-1-0.6-1.9-0.9-2.7-0.9c-0.9,0-1.6,0.3-2.1,0.9c-0.5,0.6-0.8,1.4-0.8,2.6v1.3h5.4v3.3h-5.4v14.3h-3.7V54.3H180.9z"/>
	<path class="st0" d="M196.5,68.6V50.8h3.5l0.2,2.3c0.6-1,1.3-1.8,2.2-2.1s1.9-0.6,3-0.6c0.8,0,1.7,0.1,2.4,0.4s1.4,0.6,2,1.1
		l-1.7,3.2c-0.5-0.4-0.9-0.6-1.4-0.8s-1-0.3-1.7-0.3c-1.4,0-2.5,0.4-3.4,1.3s-1.4,2-1.4,3.6v9.6H196.5z"/>
	<path class="st0" d="M210.8,59.7c0-2.7,0.9-4.9,2.6-6.7s4-2.6,6.7-2.6c3,0,5.3,0.9,7,2.7c1.4,1.5,2.1,3.6,2.1,6.3
		c0,0.5,0,1.1-0.1,1.7h-14.4c0.2,1.4,0.8,2.4,1.8,3.2c1,0.8,2.4,1.2,4,1.2c1,0,1.9-0.2,2.9-0.5s1.7-0.8,2.2-1.4l2.4,2.3
		c-0.9,1-2,1.7-3.4,2.3s-2.8,0.8-4.2,0.8c-2.9,0-5.2-0.9-7-2.6S210.8,62.6,210.8,59.7z M214.7,58.1h10.8c-0.1-1.4-0.6-2.5-1.6-3.2
		s-2.2-1.1-3.7-1.1c-1.4,0-2.6,0.4-3.6,1.1C215.6,55.6,215,56.7,214.7,58.1z"/>
	<path class="st0" d="M231.7,59.7c0-1.9,0.4-3.6,1.2-5s1.9-2.5,3.3-3.2s2.9-1.1,4.6-1.1c1.3,0,2.5,0.3,3.6,0.9
		c1.1,0.6,1.9,1.4,2.5,2.4l0.1-2.8h3.6v17.8h-3.5l-0.2-2.9c-0.5,1.1-1.4,1.9-2.6,2.5c-1.2,0.6-2.4,0.9-3.6,0.9
		c-1.7,0-3.3-0.4-4.7-1.1s-2.4-1.8-3.2-3.2S231.7,61.7,231.7,59.7z M235.4,59.7c0,1.8,0.6,3.2,1.7,4.3c1.1,1.1,2.5,1.6,4.1,1.6
		c0.9,0,1.8-0.2,2.5-0.5c0.7-0.3,1.3-0.8,1.8-1.3s0.8-1.2,1.1-1.9s0.4-1.4,0.4-2.2s-0.1-1.5-0.4-2.2c-0.2-0.7-0.6-1.3-1.1-1.9
		c-0.5-0.5-1.1-1-1.8-1.3c-0.7-0.3-1.6-0.5-2.5-0.5c-1.6,0-3,0.5-4.1,1.6S235.4,58,235.4,59.7z"/>
	<path class="st0" d="M255.7,68.6V43.4h3.7v14.7l6.6-7.3h4.5v0.2l-7.7,8.1l8.7,9.2v0.2H267l-7.6-8.2v8.2H255.7z"/>
	<path class="st0" d="M2.8,88.3c-0.5-0.4-0.7-1-0.7-1.7s0.2-1.3,0.7-1.7s1-0.6,1.6-0.6S5.6,84.6,6,85s0.7,1,0.7,1.7S6.5,87.9,6,88.3
		s-1,0.6-1.6,0.6S3.2,88.7,2.8,88.3z M2.5,109.6V91.8h3.7v17.8H2.5z"/>
	<path class="st0" d="M11.2,109.6V91.8h3.4l0.2,2.6c1.7-1.9,3.7-2.9,6-2.9c2.2,0,4,0.8,5.5,2.3s2.1,3.6,2.1,6.3v9.5h-3.7v-9.5
		c0-1.6-0.4-2.8-1.3-3.8s-2-1.4-3.5-1.4c-1.5,0-2.7,0.5-3.6,1.6s-1.4,2.3-1.4,3.8v9.3H11.2z"/>
	<path class="st0" d="M39.5,91.8h4.3l3.1,8.4l1.8,5l1.9-5l3.5-8.5h4.1l-11.2,26h-4.1l3.7-8.5L39.5,91.8z"/>
	<path class="st0" d="M59.5,100.7c0-1.7,0.4-3.3,1.1-4.7c0.8-1.4,1.8-2.5,3.2-3.3s3-1.2,4.8-1.2c2.7,0,4.9,0.9,6.6,2.7
		c1.7,1.8,2.6,4,2.6,6.6c0,2.7-0.8,4.9-2.5,6.7c-1.7,1.7-3.9,2.6-6.7,2.6c-2.7,0-5-0.9-6.6-2.6S59.5,103.4,59.5,100.7z M63.2,100.7
		c0,1.6,0.5,3,1.5,4.1s2.3,1.7,3.9,1.7c1.7,0,3-0.6,4-1.7c1-1.1,1.5-2.5,1.5-4.1c0-1.6-0.5-3-1.5-4.1c-1-1.1-2.3-1.7-3.9-1.7
		c-1.6,0-2.9,0.6-3.9,1.7S63.2,99.1,63.2,100.7z"/>
	<path class="st0" d="M81.5,101.5v-9.6h3.7v9.6c0,1.5,0.4,2.8,1.3,3.7c0.8,0.9,2,1.4,3.6,1.4c1.4,0,2.6-0.5,3.6-1.5
		c0.9-1,1.4-2.3,1.4-3.8v-9.3h3.7v17.7h-3.4l-0.2-2.5c-0.9,1-1.8,1.7-2.8,2.2c-1,0.5-2.1,0.7-3.3,0.7c-2.2,0-4-0.8-5.4-2.3
		S81.5,104.2,81.5,101.5z"/>
</g>
</svg>
